HIERARCHY
ROOT Hips
{
  OFFSET 1.44925e-005 102.336 -0.101585
  CHANNELS 6 Xposition Yposition Zposition Zrotation Xrotation Yrotation
  JOINT LeftUpLeg
  {
    OFFSET 8.9458 -8.66707 0.101652
    CHANNELS 3 Zrotation Xrotation Yrotation
    JOINT LeftLeg
    {
      OFFSET 0 -44.4227 1.3727
      CHANNELS 3 Zrotation Xrotation Yrotation
      JOINT LeftFoot
      {
        OFFSET -0.253549 -42.0924 -1.46059
        CHANNELS 3 Zrotation Xrotation Yrotation
        JOINT LeftToes
        {
          OFFSET -0.04 -4.41509 8.4991
          CHANNELS 3 Zrotation Xrotation Yrotation
          End Site
          {
            OFFSET 0.08 -0.047448 9.77979
          }
        }
      }
    }
  }
  JOINT Spine
  {
    OFFSET 0 11.8905 0
    CHANNELS 3 Zrotation Xrotation Yrotation
    JOINT Spine1
    {
      OFFSET 0 25.6574 0.127663
      CHANNELS 3 Zrotation Xrotation Yrotation
      JOINT RightShoulder
      {
        OFFSET -8.99 -0.362252 -0.22
        CHANNELS 3 Zrotation Xrotation Yrotation
        JOINT RightArm
        {
          OFFSET -10.2827 -0.00338 0.322123
          CHANNELS 3 Zrotation Xrotation Yrotation
          JOINT RightForeArm
          {
            OFFSET -26.364 0.099144 -1.42434
            CHANNELS 3 Zrotation Xrotation Yrotation
            JOINT RightHand
            {
              OFFSET -22.0324 0.085362 1.02216
              CHANNELS 3 Zrotation Xrotation Yrotation
              End Site
              {
                OFFSET -13.3284 -0.6 1.50291
              }
            }
          }
        }
      }
      JOINT LeftShoulder1
      {
        OFFSET 8.99 -0.362252 -0.22
        CHANNELS 3 Zrotation Xrotation Yrotation
        JOINT LeftArm
        {
          OFFSET 10.2827 -0.00337999 0.322123
          CHANNELS 3 Zrotation Xrotation Yrotation
          JOINT LeftForeArm
          {
            OFFSET 26.2597 0.099144 -1.42434
            CHANNELS 3 Zrotation Xrotation Yrotation
            JOINT LeftHand
            {
              OFFSET 22.0902 0.085362 1.02216
              CHANNELS 3 Zrotation Xrotation Yrotation
              End Site
              {
                OFFSET 13.419 -0.6 1.50291
              }
            }
          }
        }
      }
      JOINT Head
      {
        OFFSET 0 8.73416 0.011341
        CHANNELS 3 Zrotation Xrotation Yrotation
        End Site
        {
          OFFSET -0.29 12.7742 2.51395
        }
      }
    }
  }
  JOINT RightUpLeg
  {
    OFFSET -8.9458 -8.66707 0.101652
    CHANNELS 3 Zrotation Xrotation Yrotation
    JOINT RightLeg
    {
      OFFSET 0 -44.4227 1.3727
      CHANNELS 3 Zrotation Xrotation Yrotation
      JOINT RightFoot
      {
        OFFSET 0.253549 -42.0924 -1.46059
        CHANNELS 3 Zrotation Xrotation Yrotation
        JOINT RightToes
        {
          OFFSET 0.04 -4.41509 8.4991
          CHANNELS 3 Zrotation Xrotation Yrotation
          End Site
          {
            OFFSET -0.08 -0.137448 9.77979
          }
        }
      }
    }
  }
}
MOTION
Frames:	17
Frame Time:	0.0333333
193.825 103.093 -0.500149 -4.99476 -0.675995 -88.7948 -1.11082 3.01976 2.20868 0.0912065 8.28058 17.8228 -0.904843 -10.4912 0.0279696 -1.35001e-009 8.75214e-006 -1.4629e-008 0.107131 8.48312 0.138937 -1.95863 -0.588568 0.564628 37.0859 1.73203 0.00468123 41.5132 -14.9978 4.12352 7.20334 33.886 10.8037 -9.46263 9.46099 0.492817 -44.8034 3.5228 -3.35687 -26.3493 -8.68799 3.44199 -3.18115 29.8948 -17.6303 5.82328 9.61819 -0.917488 0.98123 -4.63596 -6.88069 -1.24581 2.13862 -3.93689 -0.881383 10.6239 -6.95807 3.95345 -12.2728 -0.0368609 0.0462048 0.000530889 0.662642 
193.816 103.093 -0.500149 -4.99373 -0.683909 -88.7995 -1.12066 3.04018 2.20873 0.0916751 8.25015 17.836 -0.902233 -10.4912 0.0279696 -1.35001e-009 8.75214e-006 -1.4629e-008 0.0991364 8.48273 0.140238 -1.98596 -0.601946 0.570109 37.0828 1.73203 0.0144511 41.5147 -14.907 4.09783 7.21581 33.6984 10.8313 -9.45416 9.46106 0.437074 -44.7791 3.5228 -3.35687 -26.3808 -8.49935 3.44014 -3.16751 29.7535 -17.6938 5.82328 9.61819 -0.917488 0.921545 -4.93275 -7.20627 -1.21606 2.13014 -3.86506 -0.952631 10.6462 -7.00229 3.99369 -12.2765 -0.0368614 0.0462048 0.000530889 0.662642 
193.801 103.093 -0.500149 -4.97098 -0.693188 -88.7999 -1.1328 3.04226 2.20873 0.0879588 8.21885 17.8427 -0.881345 -10.4947 0.0279699 -1.35001e-009 8.75214e-006 -1.4629e-008 0.0498837 8.4525 0.156789 -1.96491 -0.584645 0.581014 37.0364 1.73203 0.020214 41.5464 -14.7207 4.0484 7.17084 33.4588 10.9613 -9.49851 9.46247 0.369941 -44.7616 3.5228 -3.35687 -26.4265 -8.22216 3.42216 -3.15437 29.5007 -17.7926 5.82328 9.61819 -0.917488 1.00119 -4.9381 -6.9341 -1.17568 2.1192 -3.76304 -1.0498 10.6421 -7.03474 4.05643 -12.2855 -0.0363456 0.0462048 0.000530889 0.662642 
193.789 103.093 -0.49895 -4.93079 -0.688376 -88.7746 -1.12739 2.99826 2.2099 0.0843315 8.23214 17.8185 -0.83562 -10.5093 0.0279712 -1.35001e-009 8.75214e-006 -1.4629e-008 -0.0176242 8.348 0.172006 -1.89107 -0.454367 0.582253 36.9668 1.73203 0.0147831 41.6204 -14.3468 4.03449 7.09747 33.0024 11.1936 -9.7529 9.46973 0.105235 -44.7954 3.5228 -3.35687 -26.3784 -8.35008 3.35124 -3.25311 29.4833 -17.6805 5.82328 9.61819 -0.917488 1.26455 -4.313 -5.63161 -1.13542 2.1075 -3.68288 -1.11327 10.6061 -7.06393 4.09133 -12.2872 -0.0346836 0.0462048 0.000530889 0.662642 
193.78 103.093 -0.493855 -4.8849 -0.663752 -88.7503 -1.09939 2.92918 2.2166 0.0825557 8.27733 17.7893 -0.825765 -10.5236 0.0279725 -1.35001e-009 8.75214e-006 -1.4629e-008 -0.0348773 8.20576 0.167323 -1.87137 -0.288711 0.575482 36.9648 1.73293 0.011656 41.6899 -13.8062 4.07839 7.13885 32.1748 11.3863 -10.2789 9.47998 -0.33604 -44.8534 3.5228 -3.35549 -26.2418 -8.89151 3.27782 -3.45007 29.7558 -17.3564 5.82328 9.61819 -0.917488 1.36031 -3.88455 -4.72041 -1.08929 2.08192 -3.61929 -1.14466 10.5697 -7.14059 4.10522 -12.2674 -0.0337511 0.0462048 0.000530889 0.662642 
193.77 103.093 -0.486952 -4.83412 -0.638197 -88.7683 -1.07381 2.86616 2.22572 0.078493 8.30996 17.8011 -0.865431 -10.5356 0.0279736 -1.35001e-009 8.75214e-006 -1.4629e-008 -0.0114853 8.19229 0.147282 -1.92512 -0.374903 0.563001 37.0384 1.73751 0.0171551 41.7277 -13.4377 4.11041 7.28408 31.522 11.3947 -10.7808 9.48028 -0.603149 -44.8613 3.52283 -3.34852 -26.1599 -9.37999 3.34489 -3.56427 30.0643 -17.1171 5.82328 9.61819 -0.917488 1.13776 -4.49293 -5.31412 -1.0697 2.02334 -3.59649 -1.13751 10.5747 -7.19291 4.11884 -12.2541 -0.0330204 0.0462048 0.000530889 0.662642 
193.76 103.093 -0.476052 -4.78773 -0.636701 -88.8098 -1.08111 2.82435 2.22052 0.0716185 8.31466 17.846 -0.892748 -10.5491 0.0279748 -1.35001e-009 8.75214e-006 -1.4629e-008 -0.0405541 8.40332 0.124868 -1.92911 -0.816948 0.530301 37.0715 1.74384 0.0291691 41.7815 -13.5881 4.08351 7.3302 31.8493 11.2457 -10.7873 9.4699 -0.479728 -44.8119 3.52286 -3.34088 -26.189 -9.61817 3.58484 -3.51812 30.3002 -17.0907 5.82328 9.61819 -0.917488 0.773881 -5.27435 -6.48097 -1.1204 1.94084 -3.66636 -1.06907 10.6433 -7.11851 4.10258 -12.2872 -0.0324812 0.0462048 0.000530889 0.662642 
193.754 103.093 -0.460878 -4.7714 -0.661501 -88.8235 -1.11924 2.81596 2.20028 0.0656704 8.30658 17.8742 -0.875767 -10.5563 0.0279755 -1.35001e-009 8.75214e-006 -1.4629e-008 -0.148197 8.65375 0.109014 -1.82163 -1.23268 0.482339 37.0035 1.74664 0.0396231 41.8839 -14.1272 4.08448 7.18347 33.0257 11.1022 -10.26 9.46503 -0.138838 -44.7889 3.52284 -3.34383 -26.217 -9.79504 3.78493 -3.44696 30.5365 -17.0981 5.82328 9.61819 -0.917488 0.632081 -5.39982 -6.7649 -1.21605 1.88528 -3.79766 -0.97474 10.7358 -6.97609 4.03315 -12.3466 -0.0321157 0.0462048 0.000530889 0.662642 
193.748 103.094 -0.444513 -4.79151 -0.689512 -88.8154 -1.15661 2.85113 2.18747 0.0579727 8.28653 17.8772 -0.853379 -10.5472 0.0279747 -1.35001e-009 8.75214e-006 -1.4629e-008 -0.241568 8.66173 0.109397 -1.71142 -1.17323 0.460722 36.9351 1.75095 0.0478027 41.9775 -14.5369 4.21895 7.02881 33.8861 11.053 -9.74203 9.47062 0.0965739 -44.8423 3.52282 -3.34983 -26.1798 -9.83796 3.72375 -3.43852 30.6319 -17.0825 5.82328 9.61819 -0.917488 0.704474 -5.33164 -6.33042 -1.27897 1.89484 -3.87653 -0.938695 10.7763 -6.89484 3.97423 -12.376 -0.0319021 0.0462048 0.000530889 0.662642 
193.736 103.095 -0.429917 -4.8163 -0.69997 -88.8346 -1.16964 2.9117 2.2009 0.0393112 8.241 17.89 -0.844527 -10.5306 0.0279732 -1.35001e-009 8.75214e-006 -1.4629e-008 -0.251066 8.44264 0.12656 -1.70031 -0.761479 0.483739 36.969 1.75515 0.0568758 41.9909 -14.5207 4.42338 7.06942 33.6754 11.0452 -9.66804 9.4769 0.0618811 -44.9032 3.52281 -3.35305 -26.1811 -9.43683 3.48135 -3.39105 30.3641 -17.2308 5.82328 9.61819 -0.917488 0.712989 -5.57245 -6.18557 -1.28253 1.9403 -3.85971 -0.976813 10.7483 -6.87299 4.00125 -12.3679 -0.0318242 0.0462048 0.000530889 0.662642 
193.719 103.096 -0.41763 -4.81719 -0.69202 -88.878 -1.15823 2.9571 2.23523 0.007795 8.18281 17.9092 -0.821208 -10.5235 0.0279725 -1.35001e-009 8.75214e-006 -1.4629e-008 -0.21517 8.28695 0.136928 -1.74673 -0.515026 0.508728 37.0575 1.75764 0.0636305 41.9477 -14.266 4.53684 7.19936 33.0088 11.0592 -9.82168 9.4803 -0.0790895 -44.8771 3.52281 -3.3528 -26.3006 -8.76084 3.31945 -3.24162 29.9393 -17.5493 5.82328 9.61819 -0.917488 0.634984 -5.93207 -6.41968 -1.26507 1.96636 -3.81702 -1.0191 10.7076 -6.85535 4.07901 -12.353 -0.0318709 0.0462048 0.000530889 0.662642 
193.708 103.096 -0.408159 -4.80239 -0.674861 -88.8934 -1.12977 2.96456 2.27473 -0.0263976 8.15129 17.8895 -0.792074 -10.5247 0.0279726 -1.35001e-009 8.75214e-006 -1.4629e-008 -0.188449 8.3397 0.116715 -1.77629 -0.615816 0.492395 37.1046 1.7589 0.0665653 41.9238 -14.0973 4.52786 7.17134 32.9256 11.1361 -9.75488 9.47703 0.0066391 -44.7729 3.52281 -3.35313 -26.4491 -8.41853 3.31478 -3.10049 29.8401 -17.7526 5.82328 9.61819 -0.917488 0.611326 -6.04895 -6.53036 -1.24398 1.96818 -3.7911 -1.032 10.6808 -6.89109 4.11554 -12.3292 -0.0320267 0.0462048 0.000530889 0.662642 
193.707 103.096 -0.403583 -4.7869 -0.654414 -88.8745 -1.09143 2.93703 2.31141 -0.0534618 8.16973 17.8306 -0.80506 -10.5258 0.0279727 -1.35001e-009 8.75214e-006 -1.4629e-008 -0.170085 8.43673 0.0820336 -1.7899 -0.76384 0.456488 37.1154 1.75957 0.0681824 41.9282 -14.093 4.50619 6.98915 33.4615 11.2499 -9.48031 9.45929 0.423502 -44.6794 3.52289 -3.35343 -26.4961 -8.654 3.3195 -3.06908 30.1774 -17.6852 5.82328 9.61819 -0.917488 0.620771 -6.06712 -6.53296 -1.19981 1.97515 -3.74119 -1.0571 10.6337 -7.01661 4.10279 -12.2801 -0.0322744 0.0462048 0.000530889 0.662642 
193.708 103.096 -0.404007 -4.7642 -0.637681 -88.865 -1.05848 2.88454 2.33958 -0.0731822 8.22302 17.7876 -0.852446 -10.5278 0.0279729 -1.35001e-009 8.75214e-006 -1.4629e-008 -0.158535 8.40416 0.0688131 -1.79534 -0.721883 0.443686 37.1458 1.75971 0.0687326 41.9105 -14.1399 4.53273 6.88647 33.8225 11.2963 -9.33589 9.43786 0.819545 -44.6466 3.52289 -3.35382 -26.4529 -9.133 3.2382 -3.1103 30.5977 -17.5037 5.82328 9.61819 -0.917488 0.564015 -6.24787 -6.66946 -1.1477 1.97398 -3.66247 -1.10666 10.5682 -7.11817 4.10245 -12.2387 -0.0326029 0.0462048 0.000530889 0.662642 
193.702 103.096 -0.402762 -4.73601 -0.63375 -88.8719 -1.0486 2.83353 2.35018 -0.0905518 8.27489 17.7822 -0.876136 -10.5436 0.0279743 -1.35001e-009 8.75214e-006 -1.4629e-008 -0.176987 8.306 0.0762643 -1.76165 -0.613744 0.445649 37.1809 1.75945 0.0684666 41.8652 -14.2004 4.55128 6.96209 33.6906 11.2246 -9.38698 9.43882 0.770369 -44.6534 3.52283 -3.35443 -26.4175 -9.44239 3.15157 -3.15307 30.7543 -17.3988 5.82328 9.61819 -0.917488 0.491431 -6.4688 -6.75282 -1.13492 1.95802 -3.62765 -1.13031 10.5455 -7.0943 4.12602 -12.2498 -0.0330027 0.0462048 0.000530889 0.662642 
193.686 103.096 -0.39605 -4.73296 -0.645575 -88.8628 -1.06606 2.83331 2.34038 -0.0939585 8.29109 17.7847 -0.865412 -10.5631 0.0279761 -1.35001e-009 8.75214e-006 -1.4629e-008 -0.213317 8.27955 0.0726293 -1.70275 -0.603712 0.431164 37.1811 1.75886 0.0676349 41.8278 -14.312 4.51703 7.08394 33.5107 11.0959 -9.44646 9.46387 0.38316 -44.6677 3.52336 -3.35538 -26.4124 -9.46328 3.15413 -3.17999 30.622 -17.4017 5.82328 9.61819 -0.917488 0.489627 -6.5096 -6.61591 -1.16754 1.9528 -3.66703 -1.11247 10.5835 -7.01034 4.13212 -12.2963 -0.0334567 0.0462048 0.000530889 0.662642 
193.664 103.096 -0.384902 -4.77219 -0.666778 -88.8412 -1.10017 2.90524 2.32002 -0.0805207 8.26011 17.7854 -0.858834 -10.5655 0.0279763 -1.35001e-009 8.75214e-006 -1.4629e-008 -0.22347 8.30884 0.0535959 -1.68451 -0.625754 0.410086 37.1736 1.75804 0.0664884 41.7999 -14.4229 4.46924 7.1632 33.533 10.9755 -9.49431 9.48161 0.108768 -44.6887 3.52521 -3.35681 -26.3872 -9.3064 3.21055 -3.16947 30.3985 -17.48 5.82328 9.61819 -0.917488 0.505747 -6.53196 -6.57124 -1.20452 1.9961 -3.72127 -1.10057 10.6271 -6.95562 4.11967 -12.3335 -0.0339443 0.0462048 0.000530889 0.662642 
